<?xml version="1.0" encoding="UTF-8" standalone="no"?>
<!-- Created with Inkscape (http://www.inkscape.org/) -->

<svg
   width="48.684658mm"
   height="45.845608mm"
   viewBox="0 0 52.000409 48.968"
   version="1.1"
   id="svg1"
   inkscape:version="1.3.2 (091e20ef0f, 2023-11-25)"
   sodipodi:docname="CASABELA WEB LOGO.svg"
   xmlns:inkscape="http://www.inkscape.org/namespaces/inkscape"
   xmlns:sodipodi="http://sodipodi.sourceforge.net/DTD/sodipodi-0.dtd"
   xmlns="http://www.w3.org/2000/svg"
   xmlns:svg="http://www.w3.org/2000/svg">
  <sodipodi:namedview
     id="namedview1"
     pagecolor="#d6d6d6"
     bordercolor="#000000"
     borderopacity="0.25"
     inkscape:showpageshadow="2"
     inkscape:pageopacity="0.0"
     inkscape:pagecheckerboard="0"
     inkscape:deskcolor="#d1d1d1"
     inkscape:document-units="mm"
     inkscape:zoom="0.73406285"
     inkscape:cx="382.11987"
     inkscape:cy="532.65194"
     inkscape:window-width="1920"
     inkscape:window-height="1019"
     inkscape:window-x="0"
     inkscape:window-y="30"
     inkscape:window-maximized="1"
     inkscape:current-layer="layer1" />
  <defs
     id="defs1" />
  <g
     inkscape:label="Layer 1"
     inkscape:groupmode="layer"
     id="layer1"
     transform="translate(-4.0546569,-7.6558628)">
    <path
       fill="#0101fc"
       opacity="1"
       stroke="none"
       d="m 37.68657,8.787599 c 0.0553,0.031485 0.09604,0.069318 0.143668,0.093924 5.482855,2.821207 10.966186,5.641411 16.449384,8.461876 0.04974,0.02646 0.0979,0.05424 0.155311,0.08625 -0.37772,0.977849 -0.752423,1.947709 -1.133714,2.934739 -0.534405,-0.267357 -1.059259,-0.529973 -1.604777,-0.802357 -0.62566,-0.319317 -1.229545,-0.631015 -1.836076,-0.93758 -0.433493,-0.219069 -0.870505,-0.43126 -1.30593,-0.646546 -0.262996,-0.13811 -0.524113,-0.27963 -0.788961,-0.413904 -3.334465,-1.690512 -6.669855,-3.379278 -10.002864,-5.072648 -0.115358,-0.05847 -0.199231,-0.05953 -0.314696,-0.0016 -5.125746,2.575338 -10.253318,5.147073 -15.380731,7.719103 -0.06112,0.03069 -0.123561,0.05927 -0.206904,0.09948 -0.378937,-0.99904 -0.755439,-1.991653 -1.136783,-2.997046 5.635811,-2.836341 11.265085,-5.669374 16.900075,-8.5129379 0.02117,-0.010583 0.03625,-0.010583 0.06324,-0.010583 z"
       id="path2"
       style="stroke-width:0.0344278" />
    <path
       fill="#ff8483"
       opacity="1"
       stroke="none"
       d="m 5.7852034,25.378911 c -0.00529,0.0016 -0.010583,0.0026 -0.026987,0.0026 -0.00794,-0.977056 -0.00794,-1.953209 -0.00794,-2.945532 0.00529,-0.01588 0.010583,-0.01852 0.027252,-0.0011 0.010583,0.993089 0.00794,1.968053 0.00794,2.943018 z"
       id="path5"
       style="stroke-width:0.0344278" />
    <path
       fill="#ffffff"
       opacity="1"
       stroke="none"
       d="m 38.338371,8.787599 c 0.02117,0.040746 0.02752,0.081489 0.0344,0.1222349 -0.01323,0.00794 -0.02381,0.018521 -0.03757,0.026987 -0.03942,-0.041804 -0.07885,-0.083344 -0.119592,-0.1373161 0.03545,-0.013229 0.07223,-0.013229 0.122767,-0.013229 z"
       id="path6"
       style="stroke-width:0.0344278" />
    <path
       fill="#fd0101"
       opacity="1"
       stroke="none"
       d="m 5.8008403,25.382774 c -0.015875,-0.978828 -0.015875,-1.953791 -0.015875,-2.944765 0.06694,-0.02117 0.1352021,-0.02937 0.2034646,-0.02937 9.8399051,-5.27e-4 19.6797861,-5.27e-4 29.5196931,-5.27e-4 0.0672,0 0.134408,0 0.211137,0 0,0.99846 0,1.976892 0,2.980668 -0.07567,0 -0.147637,0 -0.219604,0 -7.929298,0 -15.858595,-2.6e-5 -23.787893,2.12e-4 -0.06879,0 -0.137583,0.0026 -0.237067,0.0026 -0.489293,-0.0026 -0.947789,-0.0053 -1.406285,-0.0053 -0.3950762,0.0011 -0.7901255,0.0079 -1.1851749,0.01058 -0.3194844,-0.0026 -0.6389423,-0.01058 -0.9584531,-0.01058 -0.7027069,-0.0021 -1.4054137,-0.0019 -2.1237839,-0.0053 z"
       id="path7"
       style="stroke-width:0.0344278" />
    <path
       fill="#020202"
       opacity="1"
       stroke="none"
       d="m 48.553695,17.994153 c 0.436113,0.198962 0.873125,0.411046 1.306618,0.630143 0.606531,0.306564 1.210416,0.618262 1.823112,0.935833 0.0079,0.105567 0.01058,0.203195 0.01058,0.300612 0,4.354588 0,8.709151 0,13.06374 0,0.06773 0,0.1352 0,0.220922 0.516334,0 1.018037,0 1.5249,0 0,0.176472 0,0.335113 0,0.501108 -15.602162,0 -31.198053,0 -46.8019325,0 0,-0.161391 0,-0.314741 0,-0.489625 14.0374405,0 28.0770255,0 42.1357665,0 0,-5.063125 0,-10.104689 0,-15.162627 z"
       id="path8"
       style="stroke-width:0.0344278" />
    <path
       fill="#010101"
       opacity="1"
       stroke="none"
       d="m 29.690121,35.651552 c 0.90715,-0.04762 1.799484,-0.114826 2.692744,-0.130701 1.244335,-0.02117 2.489332,-0.0053 3.734038,-0.0053 0.05027,2.7e-5 0.100541,0.0053 0.157691,0.0079 0,3.879093 0,7.748367 0,11.628014 -0.804518,0 -1.60483,0 -2.420461,0 0,-1.455172 0,-2.908729 0,-4.382686 -0.07594,0 -0.13679,7.94e-4 -0.197644,0 -0.917495,-0.01323 -1.835414,-0.01058 -2.752354,-0.04048 -0.771366,-0.02646 -1.528498,-0.130699 -2.205858,-0.553969 -0.90334,-0.564581 -1.423511,-1.375005 -1.564375,-2.4249 -0.0926,-0.689539 -0.06906,-1.379583 0.176741,-2.036419 0.414073,-1.106593 1.208511,-1.795259 2.379425,-2.061609 m 0.497019,4.730869 c 0.234686,0.173034 0.494956,0.287464 0.784887,0.321963 0.284215,0.03387 0.56941,0.07514 0.854763,0.08017 0.668708,0.01058 1.337786,0.0026 2.00951,0.0026 0,-1.098736 0,-2.196333 0,-3.288398 -0.702998,0 -1.39618,-0.0053 -2.08915,0.0026 -0.274108,0.0026 -0.552185,0.01852 -0.820711,0.07011 -0.632513,0.119853 -1.105746,0.464042 -1.273439,1.1049 -0.170921,0.652761 -0.02646,1.238165 0.53414,1.704321 z"
       id="path9"
       style="stroke-width:0.0344278" />
    <path
       fill="#010101"
       opacity="1"
       stroke="none"
       d="m 25.961136,39.256093 c 0,2.018059 0,4.018894 0,6.038408 1.981729,0 3.951102,0 5.930186,0 0,0.646176 0,1.273699 0,1.908392 -2.774236,0 -5.542174,0 -8.317865,0 0,-3.737756 0,-7.46982 0,-11.211068 0.793141,0 1.581441,0 2.387679,0 0,1.083072 0,2.165056 0,3.264268 z"
       id="path10"
       style="stroke-width:0.0344278" />
    <path
       fill="#010000"
       opacity="1"
       stroke="none"
       d="m 8.8827599,25.414392 c 0.3953668,-0.01852 0.7904162,-0.02381 1.1854921,-0.02646 0.458496,-0.0013 0.916992,0.0016 1.391496,0.0079 0.01588,1.947683 0.01588,3.889542 0.01588,5.842516 -0.86659,0 -1.7223311,0 -2.5932865,0 0,-1.938369 0,-3.87441 2.646e-4,-5.825159 z"
       id="path11"
       style="stroke-width:0.0344278" />
    <path
       fill="#030303"
       opacity="1"
       stroke="none"
       d="m 35.736008,50.446338 c 0.0934,0.621358 -0.204258,1.159295 -0.84955,1.350851 -0.02646,0.0079 -0.04868,0.02672 -0.07805,0.04339 0.66167,0.193405 1.044469,0.683694 1.027747,1.308439 -0.01852,0.669327 -0.468974,1.19721 -1.164828,1.355796 -0.138906,0.03175 -0.281755,0.06244 -0.422989,0.0635 -0.853996,0.0053 -1.708018,0.0026 -2.570983,0.0026 0,-1.774383 0,-3.543871 0,-5.339897 0.190209,0 0.382879,-5.29e-4 0.575575,0 0.665427,0.0026 1.331277,-0.0079 1.996149,0.01323 0.448389,0.01323 0.86315,0.143928 1.179433,0.495207 0.178593,0.198433 0.269981,0.431843 0.307419,0.706287 m -1.121886,3.237283 c 0.312764,-0.209545 0.423254,-0.532831 0.318902,-0.932606 -0.08149,-0.311883 -0.348059,-0.531535 -0.704109,-0.547621 -0.411771,-0.01852 -0.824548,-0.01588 -1.236927,-0.02117 -0.152638,-0.0021 -0.305171,-2.65e-4 -0.45929,-2.65e-4 0,0.568656 0,1.115349 0,1.668315 0.490908,0 0.972026,0.01587 1.451557,-0.0079 0.204787,-0.0079 0.406373,-0.0934 0.629867,-0.159009 m -0.0344,-2.338885 c 0.322395,-0.192082 0.331232,-0.504097 0.286676,-0.816456 -0.04418,-0.30929 -0.272071,-0.469784 -0.558747,-0.524841 -0.205846,-0.03942 -0.420317,-0.04048 -0.63119,-0.04392 -0.382005,-0.0053 -0.764196,-0.0019 -1.145725,-0.0019 0,0.516533 0,1.012455 0,1.52047 0.482917,0 0.958162,0.01058 1.432427,-0.0053 0.20029,-0.0079 0.398463,-0.0717 0.616559,-0.128056 z"
       id="path12"
       style="stroke-width:0.0344278" />
    <path
       fill="#020202"
       opacity="1"
       stroke="none"
       d="m 18.348465,53.224262 c -0.278103,0.778809 -0.824997,1.243192 -1.618086,1.366247 -0.902017,0.139962 -1.75932,-0.121441 -2.222949,-0.95282 -0.161132,-0.289182 -0.233363,-0.605615 -0.233363,-0.93631 0,-0.56773 -0.0079,-1.135774 0.01058,-1.703081 0.02646,-0.855879 0.587137,-1.526738 1.39663,-1.733769 0.810233,-0.207166 1.554427,-0.08149 2.177283,0.51132 0.282601,0.268941 0.459819,0.604134 0.536389,1.003036 -0.29456,0 -0.577903,0 -0.86688,0 C 17.32725,50.246741 16.930428,49.95756 16.36504,49.9338 c -0.693817,-0.0291 -1.201341,0.462296 -1.213909,1.1571 -0.01058,0.539022 -0.0079,1.078441 0,1.617517 0.0079,0.586697 0.374492,1.031716 0.9212,1.139478 0.600102,0.118266 1.17901,-0.162449 1.400493,-0.693534 0.04366,-0.104772 0.09049,-0.136257 0.197379,-0.132818 0.234421,0.0079 0.469291,0.0024 0.724191,0.0024 -0.01587,0.07038 -0.02937,0.128321 -0.04471,0.200285 z"
       id="path13"
       style="stroke-width:0.0344278" />
    <path
       fill="#030303"
       opacity="1"
       stroke="none"
       d="m 36.810455,53.875676 c -0.291174,-0.516982 -0.263525,-1.066879 -0.226483,-1.616352 0.02858,-0.421974 0.161131,-0.802222 0.475191,-1.103892 0.401029,-0.38512 0.898605,-0.483066 1.425258,-0.45637 0.953002,0.04816 1.413298,0.724385 1.519078,1.482503 0.03545,0.25373 0.03889,0.511929 0.05821,0.78463 -0.898234,0 -1.77255,0 -2.643399,0 -0.07646,0.340773 0.177006,0.729067 0.542104,0.850905 0.470668,0.157158 0.996262,0.05794 1.425337,-0.273203 0.181504,0.162981 0.364093,0.327281 0.5529,0.497006 -0.358193,0.322361 -0.772054,0.513573 -1.240737,0.565693 -0.347477,0.03863 -0.69514,0.01852 -1.035182,-0.08996 -0.357214,-0.113239 -0.636614,-0.322307 -0.852276,-0.641096 m 2.108994,-1.534308 c 0.100012,0 0.19976,0 0.300143,0 -0.03122,-0.591196 -0.344884,-0.931601 -0.843042,-0.937527 -0.600578,-0.0079 -0.933106,0.304501 -0.983245,0.937527 0.498052,0 0.99494,0 1.526144,0 z"
       id="path14"
       style="stroke-width:0.0344278" />
    <path
       fill="#030303"
       opacity="1"
       stroke="none"
       d="m 20.847904,51.382307 c -0.377242,-0.01058 -0.715539,0.07276 -1.031583,0.261665 -0.199761,-0.123823 -0.401744,-0.249233 -0.612432,-0.38009 0.21934,-0.250026 0.494877,-0.386575 0.796873,-0.472059 0.443468,-0.125675 0.893868,-0.133612 1.341437,-0.02831 0.64426,0.151339 1.039072,0.614773 1.056984,1.295395 0.02117,0.830585 0.0053,1.662202 0.0053,2.505012 -0.272336,0 -0.538533,0 -0.813409,0 0,-0.07646 0,-0.154512 0,-0.214837 -0.208492,0.08043 -0.408649,0.192085 -0.622485,0.233093 -0.431641,0.08281 -0.86831,0.06323 -1.285743,-0.08943 -0.512577,-0.187584 -0.741204,-0.624692 -0.678047,-1.25994 0.04604,-0.462508 0.418861,-0.840005 0.941175,-0.887286 0.466672,-0.04233 0.938266,-0.03042 1.407663,-0.0418 0.07303,-0.0019 0.14605,-2.65e-4 0.216694,-2.65e-4 0.06165,-0.492114 -0.145786,-0.862203 -0.722313,-0.920938 M 20.6091,53.991719 c 0.182562,-0.01058 0.368194,-0.0079 0.547131,-0.03995 0.174599,-0.03148 0.39288,-0.05609 0.418439,-0.283731 0.02699,-0.24156 0.0053,-0.488329 0.0053,-0.743329 -0.202936,0 -0.391425,-0.0026 -0.579623,0.0011 -0.268499,0.0079 -0.539221,0.0013 -0.804545,0.03545 -0.262467,0.03386 -0.375497,0.181763 -0.396425,0.438004 -0.01852,0.230183 0.08546,0.420862 0.30861,0.499814 0.14814,0.05239 0.311256,0.06323 0.500327,0.09287 z"
       id="path15"
       style="stroke-width:0.0344278" />
    <path
       fill="#020202"
       opacity="1"
       stroke="none"
       d="m 42.890289,53.954467 c -0.101336,-0.251876 -0.119327,-0.498727 -0.0799,-0.752033 0.08546,-0.550397 0.489346,-0.808149 0.948293,-0.857732 0.397033,-0.04286 0.80002,-0.03069 1.200441,-0.04074 0.131233,-0.0026 0.262731,-5.29e-4 0.392536,-5.29e-4 0.132027,-0.570244 -0.286862,-1.000869 -0.915009,-0.915014 -0.259292,0.03545 -0.507682,0.149222 -0.762132,0.223567 -0.03519,0.01058 -0.08493,0.01323 -0.1143,-0.0053 -0.18624,-0.1098 -0.368829,-0.225946 -0.563166,-0.346779 0.281146,-0.285374 0.616347,-0.4406 0.99904,-0.512696 0.44667,-0.08414 0.886302,-0.07726 1.317837,0.07408 0.547687,0.191818 0.857435,0.593339 0.877623,1.158952 0.03069,0.857917 0.0079,1.717739 0.0079,2.585627 -0.274928,0 -0.541284,0 -0.817615,0 0,-0.08175 0,-0.160067 0,-0.248965 -0.549566,0.396442 -1.145249,0.34747 -1.744504,0.220922 -0.332052,-0.07011 -0.590391,-0.257169 -0.747157,-0.584187 m 1.411394,0.03572 c 0.216958,-0.01058 0.435266,-0.01058 0.650134,-0.03757 0.167481,-0.02117 0.380233,-0.05556 0.410554,-0.246583 0.04022,-0.253995 0.01058,-0.51942 0.01058,-0.777592 -0.03387,-0.0024 -0.04524,-0.0026 -0.05689,-0.0026 -0.343879,0 -0.687785,-0.0026 -1.031584,0.0013 -0.113506,0.0016 -0.229659,0.01058 -0.339434,0.03704 -0.344382,0.08466 -0.464423,0.553968 -0.219075,0.813546 0.151077,0.160067 0.349726,0.176207 0.576368,0.213249 z"
       id="path16"
       style="stroke-width:0.0344278" />
    <path
       fill="#020202"
       opacity="1"
       stroke="none"
       d="m 29.32608,50.72097 c 0.358061,0.05794 0.67863,0.164301 0.927921,0.423243 0.222514,0.230976 0.350361,0.507617 0.352557,0.827993 0.0053,0.859848 0.0026,1.719749 0.0026,2.591421 -0.261409,0 -0.527341,0 -0.80399,0 0,-0.07646 0,-0.153717 0,-0.248171 -0.55327,0.39742 -1.15136,0.355748 -1.749689,0.223303 -0.560361,-0.124087 -0.876274,-0.571778 -0.845265,-1.141677 0.03281,-0.601144 0.363802,-0.992002 0.956099,-1.051136 0.465613,-0.04656 0.937392,-0.03095 1.406472,-0.04233 0.07302,-0.0019 0.145785,-2.65e-4 0.216138,-2.65e-4 0.07461,-0.563099 -0.228309,-0.914696 -0.793115,-0.922895 -0.341101,-0.0053 -0.664157,0.07805 -0.957686,0.265183 -0.201083,-0.125145 -0.402802,-0.250555 -0.621162,-0.386572 0.551868,-0.521904 1.199674,-0.612523 1.909656,-0.538017 m -0.423677,2.203289 c -0.103187,2.65e-4 -0.20955,-0.01323 -0.309007,0.0053 -0.136789,0.02646 -0.28358,0.05477 -0.399362,0.125674 -0.184944,0.113239 -0.192616,0.314608 -0.161396,0.507405 0.03704,0.22833 0.208227,0.336357 0.41148,0.38263 0.368724,0.08387 0.741178,0.07117 1.102651,-0.03704 0.08996,-0.02699 0.216403,-0.123029 0.224605,-0.198168 0.02805,-0.256905 0.01058,-0.518546 0.01058,-0.785133 -0.283528,0 -0.56441,0 -0.879502,0 z"
       id="path17"
       style="stroke-width:0.0344278" />
    <path
       fill="#030303"
       opacity="1"
       stroke="none"
       d="m 23.74443,52.768104 c -0.70178,-0.313788 -0.60571,-1.441333 -0.04498,-1.789544 0.350917,-0.218011 0.734007,-0.273306 1.127046,-0.283308 0.568113,-0.01323 1.111779,0.102127 1.615281,0.376624 0.06324,0.0344 0.122211,0.07699 0.201322,0.127527 -0.179626,0.192876 -0.345837,0.371361 -0.491332,0.527619 -0.315013,-0.105037 -0.603885,-0.225949 -0.904689,-0.294474 -0.295408,-0.0672 -0.607934,-0.07514 -0.892334,0.05371 -0.106098,0.04815 -0.206111,0.160597 -0.256646,0.268359 -0.09287,0.197638 -0.01852,0.361624 0.19394,0.406548 0.277759,0.05874 0.564859,0.07276 0.847566,0.109006 0.260085,0.03334 0.524298,0.0508 0.778695,0.109799 0.449236,0.103979 0.720249,0.465709 0.730356,0.930622 0.01323,0.618606 -0.212434,0.971817 -0.767609,1.170196 -0.164571,0.05874 -0.340175,0.102391 -0.513848,0.118002 -0.620765,0.05583 -1.236636,0.03545 -1.813401,-0.237856 -0.188092,-0.08916 -0.359833,-0.213513 -0.550095,-0.328472 0.186531,-0.203459 0.351605,-0.383714 0.524113,-0.571987 0.320993,0.223833 0.661802,0.404723 1.045051,0.436367 0.291201,0.02381 0.590815,-0.0079 0.88183,-0.05053 0.109511,-0.01588 0.224076,-0.110329 0.303636,-0.198433 0.165629,-0.183351 0.107156,-0.475152 -0.126735,-0.547065 -0.257678,-0.07937 -0.53385,-0.09763 -0.801926,-0.14287 -0.358378,-0.06059 -0.716651,-0.121441 -1.085347,-0.190233 z"
       id="path18"
       style="stroke-width:0.0344278" />
    <path
       fill="#030303"
       opacity="1"
       stroke="none"
       d="m 42.401498,54.231851 c 0,0.124613 0,0.232296 0,0.36776 -0.284983,-0.01588 -0.557557,-0.0026 -0.817854,-0.05344 -0.405977,-0.07858 -0.679503,-0.420148 -0.681196,-0.830456 -0.0053,-1.485543 -0.0026,-2.971141 -0.0026,-4.467667 0.280934,0 0.5588,0 0.857276,0 0,0.05662 -2.6e-5,0.117737 -2.6e-5,0.178853 0,1.35413 0,2.708233 0,4.062365 2.6e-5,0.319979 0.04445,0.364083 0.36486,0.364188 0.08573,2.7e-5 0.171715,0 0.279294,0 0,0.124881 0,0.243147 0,0.378452 z"
       id="path19"
       style="stroke-width:0.0344278" />
    <path
       fill="#090909"
       opacity="1"
       stroke="none"
       d="m 39.652477,35.599088 c 0.783722,-0.788228 1.713706,-1.074102 2.774685,-0.793334 1.046983,0.277066 1.722067,0.971288 1.995488,2.022239 0.46863,1.801371 -1.022615,3.571997 -2.882001,3.43762 -1.525772,-0.110329 -2.675096,-1.351513 -2.631228,-2.851925 0.02117,-0.690203 0.270669,-1.292934 0.743056,-1.8146 m -0.371131,2.670715 c 0.01323,0.03783 0.02381,0.0762 0.03889,0.113768 0.466884,1.223801 1.789113,1.89511 3.0607,1.554205 1.236848,-0.331568 2.045071,-1.564682 1.851713,-2.825284 -0.225954,-1.472846 -1.654598,-2.427756 -3.125549,-2.089045 -1.421421,0.327308 -2.263378,1.806583 -1.825625,3.246462 z"
       id="path26"
       style="stroke-width:0.0344278" />
    <path
       fill="#fdfdfd"
       opacity="1"
       stroke="none"
       d="m 39.27788,38.256391 c -0.434287,-1.426467 0.40767,-2.905741 1.829091,-3.233049 1.470951,-0.338712 2.899648,0.616198 3.125549,2.089044 0.19341,1.260602 -0.614865,2.493716 -1.851713,2.825284 -1.271587,0.340905 -2.593816,-0.330404 -3.0607,-1.554205 -0.01323,-0.0373 -0.02646,-0.07567 -0.04233,-0.126995 m 3.429211,-1.414084 c -0.138641,0.399378 -0.277521,0.798756 -0.430821,1.240018 -0.13626,-0.405755 -0.256116,-0.762246 -0.375311,-1.119026 -0.09075,-0.272013 -0.09049,-0.272172 -0.391213,-0.224891 0,0.523571 0,1.048729 0,1.582036 0.06323,0 0.123825,0 0.202406,0 0,-0.412316 0,-0.819843 0,-1.22737 0.156898,0.354531 0.283369,0.712928 0.397008,1.075317 0.04471,0.142079 0.109537,0.205841 0.258233,0.141549 0.144171,-0.411125 0.288872,-0.823176 0.433467,-1.235254 0.01058,0.0019 0.02117,0.0026 0.03096,0.0053 0,0.414089 0,0.828178 0,1.238695 0.07541,0 0.135202,0 0.194469,0 0,-0.535027 0,-1.060133 0,-1.603706 -0.109273,0.04445 -0.253206,-0.08625 -0.319088,0.127527 m -1.58742,0.07143 c 0.05053,0 0.10107,0 0.15822,0 0,-0.068 0,-0.122499 0,-0.184409 -0.422222,0 -0.837459,0 -1.257485,0 0,0.0635 0,0.117472 0,0.185468 0.178594,0 0.348536,0 0.528214,0 0,0.477139 0,0.939908 0,1.401913 0.07541,0 0.139965,0 0.217753,0 0,-0.472562 0,-0.933664 0,-1.40313 0.115358,0 0.217752,0 0.353245,0 z"
       id="path48"
       style="fill:none;stroke-width:0.0344278" />
    <path
       fill="#0c0c0c"
       opacity="1"
       stroke="none"
       d="m 42.712436,36.82966 c 0.06032,-0.201078 0.204523,-0.07038 0.313743,-0.114827 0,0.543574 0,1.068679 0,1.603706 -0.05927,0 -0.119063,0 -0.194469,0 0,-0.410517 0,-0.824606 0,-1.238694 -0.01058,-0.0019 -0.02117,-0.0026 -0.03096,-0.0053 -0.144727,0.412078 -0.289216,0.824129 -0.433467,1.235255 -0.148696,0.06429 -0.213783,5.29e-4 -0.258233,-0.14155 -0.113507,-0.362389 -0.239978,-0.720785 -0.397008,-1.075317 0,0.407528 0,0.815055 0,1.227371 -0.07858,0 -0.139171,0 -0.202406,0 0,-0.533308 0,-1.058466 0,-1.582037 0.300805,-0.04709 0.300355,-0.04709 0.391213,0.224891 0.119062,0.35678 0.239183,0.713272 0.375311,1.119026 0.153168,-0.441261 0.292047,-0.840639 0.436166,-1.252664 z"
       id="path50"
       style="stroke-width:0.0344278" />
    <path
       fill="#0c0c0c"
       opacity="1"
       stroke="none"
       d="m 41.103028,36.913689 c -0.118798,0 -0.221191,0 -0.336603,0 0,0.469466 0,0.930569 0,1.40313 -0.07779,0 -0.142345,0 -0.217752,0 0,-0.462005 0,-0.924774 0,-1.401913 -0.179652,0 -0.349541,0 -0.528214,0 0,-0.06826 0,-0.12197 0,-0.185468 0.420026,0 0.835263,0 1.257485,0 0,0.06165 0,0.116414 0,0.18441 -0.05741,0 -0.10795,0 -0.174889,0 z"
       id="path51"
       style="stroke-width:0.0344278" />
  </g>
</svg>
