<?xml version="1.0" standalone="no"?>
<!DOCTYPE svg PUBLIC "-//W3C//DTD SVG 20010904//EN"
 "http://www.w3.org/TR/2001/REC-SVG-20010904/DTD/svg10.dtd">
<svg version="1.0" xmlns="http://www.w3.org/2000/svg"
 width="700.000000pt" height="700.000000pt" viewBox="0 0 700.000000 700.000000"
 preserveAspectRatio="xMidYMid meet">
<metadata>
Created by potrace 1.14, written by Peter Selinger 2001-2017
</metadata>
<g transform="translate(0.000000,700.000000) scale(0.100000,-0.100000)"
fill="#000000" stroke="none">
<path d="M4205 5080 c-192 -97 -732 -370 -1200 -605 -467 -235 -853 -431 -858
-434 -4 -4 27 -96 68 -204 41 -108 75 -201 75 -206 0 -6 4 -13 10 -16 5 -3
517 249 1137 561 l1128 567 375 -190 c206 -105 555 -281 775 -393 220 -111
406 -207 413 -212 9 -8 12 -240 12 -1099 l0 -1089 -3030 0 -3030 0 0 -35 0
-35 3366 0 3365 0 -3 37 -3 36 -107 0 -108 0 0 973 c0 536 2 974 5 974 3 0 55
-25 115 -55 128 -64 108 -76 174 101 25 66 56 148 70 183 14 36 26 70 26 76 0
6 -69 46 -152 89 -145 75 -253 130 -688 353 -102 53 -257 133 -345 178 -230
119 -481 247 -710 365 -110 56 -268 138 -351 181 -83 44 -158 79 -165 78 -8 0
-171 -81 -364 -179z"/>
<path d="M4 3301 c-2 -2 -4 -99 -4 -215 l0 -211 218 0 217 0 0 -415 c0 -228 3
-417 7 -420 6 -5 331 -5 361 -1 4 1 8 182 7 404 -1 221 -1 409 -1 417 1 14
177 16 1724 15 947 0 1731 2 1742 6 19 6 20 16 20 213 0 113 -2 207 -5 207
-14 4 -4282 4 -4286 0z"/>
</g>
</svg>
