<?xml version="1.0" encoding="UTF-8" standalone="no"?>
<svg
   width="189"
   height="40"
   fill="none"
   version="1.1"
   id="svg2"
   sodipodi:docname="WhatsAppButtonRedMedium.svg"
   inkscape:version="1.3.2 (091e20ef0f, 2023-11-25)"
   xmlns:inkscape="http://www.inkscape.org/namespaces/inkscape"
   xmlns:sodipodi="http://sodipodi.sourceforge.net/DTD/sodipodi-0.dtd"
   xmlns="http://www.w3.org/2000/svg"
   xmlns:svg="http://www.w3.org/2000/svg">
  <sodipodi:namedview
     id="namedview1"
     pagecolor="#ffffff"
     bordercolor="#000000"
     borderopacity="0.25"
     inkscape:showpageshadow="2"
     inkscape:pageopacity="0.0"
     inkscape:pagecheckerboard="0"
     inkscape:deskcolor="#d1d1d1"
     inkscape:zoom="5.6455026"
     inkscape:cx="94.5"
     inkscape:cy="19.927366"
     inkscape:window-width="1920"
     inkscape:window-height="964"
     inkscape:window-x="0"
     inkscape:window-y="30"
     inkscape:window-maximized="1"
     inkscape:current-layer="svg2" />
  <defs
     id="defs2" />
  <rect
     width="189"
     height="40"
     rx="8"
     fill="#25D366"
     id="rect1"
     style="fill:#ff0000" />
  <path
     fill-rule="evenodd"
     clip-rule="evenodd"
     d="M27.7462 8.9474c2.9024.014 5.7034 1.1536 7.7986 3.1621 2.1456 2.057 3.3822 4.8152 3.4903 7.7856.1056 2.9007-.9071 5.7501-2.8279 7.9262-2.1067 2.3867-5.0371 3.7574-8.2021 3.8483a11.3615 11.3615 0 0 1-.325.0046c-1.7054 0-3.3949-.3845-4.9252-1.1209l-5.9481 1.323a.0874.0874 0 0 1-.1033-.0974l1.0048-6.0144c-.8575-1.5668-1.3361-3.3321-1.3877-5.1278-.087-3.0341 1.0127-5.9203 3.0966-8.1273 2.1606-2.2882 5.1111-3.562 8.2727-3.562h.0563Zm-.0633 1.9717a9.576 9.576 0 0 0-.2728.0039c-5.1765.1485-9.2671 4.4807-9.1186 9.6572.0454 1.5806.4907 3.1322 1.2878 4.4869l.173.2936-.7445 4.0812 4.0387-.9533.305.1587c1.3307.6924 2.8218 1.0553 4.3283 1.0553.0895 0 .1792-.0013.2687-.0039 5.1766-.1484 9.2672-4.4806 9.1187-9.6571-.1459-5.0851-4.3294-9.1225-9.3843-9.1225Zm-3.9285 3.9024c.1899.0059.3802.0113.5462.0235.2029.0146.4275.031.6265.5128.2362.5721.747 2.0004.8139 2.1453.0669.1449.1093.313.0084.5007-.1009.1873-.1521.3049-.2995.467-.1477.1623-.3111.3628-.4431.4867-.1474.1379-.3006.2879-.143.5785.1575.2907.701 1.2424 1.5255 2.0249 1.0596 1.0056 1.9093 1.3374 2.2468 1.4948.1218.0569.223.0839.3114.0839.1214 0 .2185-.0509.3112-.1448.1776-.18.712-.8036.937-1.0905.1177-.1501.2243-.2033.34-.2033.0926 0 .1911.0341.3061.08.2584.1032 1.639.8366 1.9198.9881.2808.1514.4686.2287.5363.3497.0676.1216.05.6927-.2081 1.3517-.2581.6591-1.4419 1.2661-1.9662 1.2975-.1535.0093-.3045.0307-.501.0307-.4751 0-1.2159-.1251-2.8986-.8498-2.8631-1.2329-4.6017-4.2625-4.7385-4.4571-.1365-.1949-1.1167-1.5831-1.0736-2.9873.0431-1.404.801-2.0718 1.0712-2.3493.259-.2661.5558-.334.7474-.334l.0239.0003Z"
     fill="#fff"
     id="path1" />
  <path
     style="font-weight:600;font-size:21.3333px;font-family:FreeSans;-inkscape-font-specification:'FreeSans Semi-Bold';fill:#f9f9f9"
     d="m 58.806458,17.54667 q -0.597332,-2.794662 -3.327995,-2.794662 -1.898663,0 -2.965328,1.450665 -1.066665,1.450664 -1.066665,4.031993 0,2.538663 1.023998,3.967994 1.045332,1.429331 2.901329,1.429331 1.493331,0 2.389329,-0.810665 0.895999,-0.810666 1.045332,-2.303997 h 3.114662 q -0.149333,2.666663 -1.941331,4.245327 -1.791997,1.557331 -4.693325,1.557331 -3.242662,0 -5.141326,-2.175997 -1.898663,-2.19733 -1.898663,-5.95199 0,-3.775994 1.919997,-5.973324 1.919997,-2.19733 5.205325,-2.19733 2.751995,0 4.501326,1.471998 1.770664,1.471997 1.983997,4.053326 z m 10.495998,-1.429331 q 2.709329,0 4.20266,1.642664 1.514665,1.621331 1.514665,4.543993 0,2.773329 -1.535998,4.39466 -1.535998,1.621331 -4.159993,1.621331 -2.666663,0 -4.181327,-1.621331 -1.514664,-1.642664 -1.514664,-4.479993 0,-2.837329 1.514664,-4.45866 1.514664,-1.642664 4.159993,-1.642664 z m 0.02133,2.410663 q -1.215999,0 -1.962664,1.023999 -0.746666,1.023998 -0.746666,2.666662 0,1.642664 0.746666,2.666663 0.746665,1.023998 1.962664,1.023998 1.194664,0 1.94133,-1.002665 0.767999,-1.023999 0.767999,-2.645329 0,-1.706664 -0.746666,-2.709329 -0.725332,-1.023999 -1.962663,-1.023999 z m 7.935994,-2.218663 h 2.986662 v 1.663997 q 1.237331,-1.855997 3.455994,-1.855997 1.834664,0 2.837329,1.045332 1.023999,1.045332 1.023999,2.943995 v 7.722655 h -2.986662 v -7.103989 q 0,-2.06933 -1.919997,-2.06933 -1.087999,0 -1.749331,0.618666 -0.661332,0.618665 -0.661332,1.642664 v 6.911989 h -2.986662 z m 18.261323,0.234666 v 1.983997 H 93.85711 v 6.27199 q 0,0.767999 0.192,1.023999 0.191999,0.234666 0.789332,0.234666 0.234666,0 0.682665,-0.064 v 2.090664 q -0.725332,0.234666 -1.727997,0.234666 -2.922662,0 -2.922662,-2.709329 V 18.528002 H 89.39845 v -1.983997 h 1.471998 v -3.093328 h 2.986662 v 3.093328 z m 9.407973,-4.863992 -2.688,3.199995 h -1.49333 l 1.49333,-3.199995 z m -4.416,16.639974 q -1.57866,0 -2.538659,-0.938665 -0.959998,-0.959999 -0.959998,-2.51733 0,-3.050662 3.391997,-3.626661 l 1.19466,-0.213333 q 0.0427,0 0.42667,-0.04267 0.384,-0.064 0.49066,-0.08533 0.10667,-0.04267 0.40534,-0.106667 0.32,-0.064 0.448,-0.149333 0.128,-0.08533 0.29866,-0.213333 0.192,-0.149333 0.256,-0.32 0.064,-0.191999 0.064,-0.426666 0,-1.151998 -1.728,-1.151998 -1.10933,0 -1.55733,0.341333 -0.448,0.341333 -0.55466,1.237331 h -2.879998 q 0.277333,-3.989327 4.927988,-3.989327 4.71466,0 4.71466,3.541328 v 6.39999 q 0,0.789332 0.68267,1.407998 v 0.362666 h -3.24266 q -0.34133,-0.426666 -0.34133,-1.151998 -1.57867,1.642664 -3.49867,1.642664 z m 3.47733,-5.119992 V 22.38933 q -0.40533,0.191999 -1.25866,0.362666 l -1.024,0.191999 q -0.93867,0.192 -1.32267,0.554666 -0.384,0.362666 -0.384,1.023998 0,0.639999 0.42667,1.023999 0.448,0.362666 1.19467,0.362666 1.13066,0 1.74933,-0.703999 0.61866,-0.703999 0.61866,-2.00533 z m 10.51732,-4.671993 q -2.432,0 -2.432,3.775994 0,1.685331 0.64,2.645329 0.66134,0.959999 1.792,0.959999 0.87467,0 1.36533,-0.469333 0.49067,-0.490666 0.768,-1.599997 h 2.85866 q -0.21333,2.06933 -1.57866,3.285328 -1.344,1.194665 -3.43466,1.194665 -2.56,0 -3.98933,-1.578664 -1.408,-1.578665 -1.408,-4.437327 0,-2.943995 1.42933,-4.565326 1.42933,-1.621331 4.01066,-1.621331 2.15467,0 3.47733,1.194665 1.344,1.194665 1.49333,3.306662 h -2.85866 q -0.256,-1.130665 -0.74666,-1.599998 -0.46934,-0.490666 -1.38667,-0.490666 z m 12.20266,-1.983997 v 1.983997 h -1.664 v 6.27199 q 0,0.767999 0.192,1.023999 0.192,0.234666 0.78933,0.234666 0.23467,0 0.68267,-0.064 v 2.090664 q -0.72533,0.234666 -1.728,0.234666 -2.92266,0 -2.92266,-2.709329 v -7.082656 h -1.472 v -1.983997 h 1.472 v -3.093328 h 2.98666 v 3.093328 z m 4.99198,11.775982 q -1.57867,0 -2.53867,-0.938665 -0.96,-0.959999 -0.96,-2.51733 0,-3.050662 3.392,-3.626661 l 1.19466,-0.213333 q 0.0427,0 0.42667,-0.04267 0.384,-0.064 0.49067,-0.08533 0.10666,-0.04267 0.40533,-0.106667 0.32,-0.064 0.448,-0.149333 0.128,-0.08533 0.29866,-0.213333 0.192,-0.149333 0.256,-0.32 0.064,-0.191999 0.064,-0.426666 0,-1.151998 -1.72799,-1.151998 -1.10934,0 -1.55733,0.341333 -0.448,0.341333 -0.55467,1.237331 h -2.88 q 0.27734,-3.989327 4.928,-3.989327 4.71466,0 4.71466,3.541328 v 6.39999 q 0,0.789332 0.68266,1.407998 v 0.362666 h -3.24266 q -0.34133,-0.426666 -0.34133,-1.151998 -1.57867,1.642664 -3.49866,1.642664 z m 3.47732,-5.119992 V 22.38933 q -0.40533,0.191999 -1.25866,0.362666 l -1.024,0.191999 q -0.93866,0.192 -1.32266,0.554666 -0.384,0.362666 -0.384,1.023998 0,0.639999 0.42666,1.023999 0.448,0.362666 1.19467,0.362666 1.13066,0 1.74933,-0.703999 0.61866,-0.703999 0.61866,-2.00533 z m 5.63199,-6.890656 h 2.98666 v 1.663997 q 1.23734,-1.855997 3.456,-1.855997 1.83466,0 2.83733,1.045332 1.024,1.045332 1.024,2.943995 v 7.722655 H 148.129 v -7.103989 q 0,-2.06933 -1.91999,-2.06933 -1.088,0 -1.74933,0.618666 -0.66134,0.618665 -0.66134,1.642664 v 6.911989 h -2.98666 z m 18.21866,-0.192 q 2.70933,0 4.20266,1.642664 1.51466,1.621331 1.51466,4.543993 0,2.773329 -1.53599,4.39466 -1.536,1.621331 -4.16,1.621331 -2.66666,0 -4.18132,-1.621331 -1.51467,-1.642664 -1.51467,-4.479993 0,-2.837329 1.51467,-4.45866 1.51466,-1.642664 4.15999,-1.642664 z m 0.0213,2.410663 q -1.216,0 -1.96266,1.023999 -0.74667,1.023998 -0.74667,2.666662 0,1.642664 0.74667,2.666663 0.74666,1.023998 1.96266,1.023998 1.19467,0 1.94133,-1.002665 0.768,-1.023999 0.768,-2.645329 0,-1.706664 -0.74666,-2.709329 -0.72534,-1.023999 -1.96267,-1.023999 z m 10.112,5.951991 q 0.14933,0.725332 0.59733,1.109331 0.46933,0.384 1.74933,0.384 1.04533,0 1.62133,-0.298666 0.59733,-0.298667 0.59733,-0.831999 0,-0.341333 -0.23466,-0.554666 -0.21334,-0.213333 -0.768,-0.383999 l -3.56266,-1.109332 q -0.0213,0 -0.256,-0.064 -0.23467,-0.08533 -0.34134,-0.128 -0.0853,-0.04267 -0.34133,-0.127999 -0.256,-0.106667 -0.40533,-0.213333 -0.128,-0.106667 -0.34133,-0.256 -0.21334,-0.170666 -0.34134,-0.362666 -0.10666,-0.192 -0.23466,-0.426666 -0.128,-0.256 -0.192,-0.575999 -0.064,-0.32 -0.064,-0.682666 0,-1.770664 1.25866,-2.794662 1.28,-1.045332 3.47733,-1.045332 2.32533,0 3.64799,1.045332 1.32267,1.023998 1.36534,2.858662 h -2.88 q -0.0213,-1.557331 -2.15466,-1.557331 -0.78934,0 -1.25867,0.298667 -0.46933,0.277332 -0.46933,0.767998 0,0.341333 0.21333,0.533333 0.21334,0.170666 0.832,0.362666 l 3.77599,1.087998 q 2.26133,0.661333 2.26133,2.901329 0,0.661332 -0.23466,1.301331 -0.23467,0.618666 -0.768,1.237332 -0.512,0.618665 -1.55733,0.981331 -1.04533,0.384 -2.47466,0.384 -5.312,0 -5.44,-3.839994 z"
     id="text2"
     aria-label="Contáctanos" />
</svg>
